<svg width="100" height="100" viewBox="0 0 21 19" xmlns="http://www.w3.org/2000/svg">
<path fill-rule="evenodd" clip-rule="evenodd" d="M20.2751 8.15674L0.481403 0.021584C0.338258 -0.0376384 0.182575 0.0273618 0.0874931 0.187696C-0.00863348 0.346585 -0.0274428 0.569033 0.040473 0.752478L2.49902 7.44462L2.133 7.86052C1.38582 8.7095 1.38586 10.2906 2.13307 11.1395L2.49912 11.5554L0.0405814 18.2475C-0.0273344 18.431 -0.00852778 18.6534 0.0875988 18.8123C0.182681 18.9726 0.338364 19.0376 0.481509 18.9784L20.2752 10.8433C21.2417 10.4461 21.2415 8.55393 20.2751 8.15674ZM3.08518 8.11918L12.5244 9.50007L3.08529 10.8808L2.59135 10.3199C2.21756 9.89547 2.21754 9.10464 2.59129 8.68013L3.08518 8.11918Z"/>
</svg>
