<svg width="100" height="100" viewBox="0 0 22 22" xmlns="http://www.w3.org/2000/svg">
<path d="M11.0007 1.83301C8.50591 1.83301 6.23953 2.83553 4.58408 4.45858V3.66634C4.58575 3.54378 4.56283 3.42212 4.51667 3.30857C4.47051 3.19502 4.40205 3.09188 4.31534 3.00524C4.22862 2.91861 4.12541 2.85025 4.01182 2.8042C3.89822 2.75815 3.77654 2.73535 3.65398 2.73714C3.41102 2.7407 3.17942 2.84057 3.01005 3.0148C2.84069 3.18904 2.74742 3.42338 2.75074 3.66634V6.87467C2.75104 7.11125 2.84277 7.33854 3.00677 7.50905C3.17077 7.67955 3.39433 7.78006 3.63071 7.78955C3.76663 7.82164 3.90809 7.82225 4.04428 7.79134H6.87574C6.99721 7.79306 7.11781 7.77062 7.23053 7.72532C7.34325 7.68003 7.44585 7.61278 7.53235 7.52749C7.61886 7.4422 7.68755 7.34056 7.73443 7.2285C7.78132 7.11643 7.80546 6.99616 7.80546 6.87467C7.80546 6.75319 7.78132 6.63292 7.73443 6.52085C7.68755 6.40879 7.61886 6.30715 7.53235 6.22186C7.44585 6.13657 7.34325 6.06932 7.23053 6.02403C7.11781 5.97873 6.99721 5.95629 6.87574 5.95801H5.67888C7.01379 4.54844 8.89955 3.66634 11.0007 3.66634C15.0616 3.66634 18.3341 6.9388 18.3341 10.9997C18.3341 15.0605 15.0616 18.333 11.0007 18.333C6.93987 18.333 3.66741 15.0605 3.66741 10.9997C3.66913 10.8782 3.64669 10.7576 3.60139 10.6449C3.55609 10.5322 3.48885 10.4296 3.40356 10.3431C3.31827 10.2566 3.21663 10.1879 3.10456 10.141C2.99249 10.0941 2.87222 10.07 2.75074 10.07C2.62926 10.07 2.50899 10.0941 2.39692 10.141C2.28485 10.1879 2.18322 10.2566 2.09793 10.3431C2.01264 10.4296 1.94539 10.5322 1.9001 10.6449C1.8548 10.7576 1.83236 10.8782 1.83408 10.9997C1.83408 16.0514 5.94903 20.1663 11.0007 20.1663C16.0525 20.1663 20.1674 16.0514 20.1674 10.9997C20.1674 5.94797 16.0525 1.83301 11.0007 1.83301ZM10.9873 5.94548C10.7444 5.94904 10.5127 6.0489 10.3434 6.22314C10.174 6.39737 10.0808 6.63171 10.0841 6.87467V11.9163C10.0841 12.1594 10.1807 12.3926 10.3526 12.5645C10.5245 12.7364 10.7576 12.833 11.0007 12.833H14.2091C14.3305 12.8347 14.4511 12.8123 14.5639 12.767C14.6766 12.7217 14.7792 12.6544 14.8657 12.5692C14.9522 12.4839 15.0209 12.3822 15.0678 12.2702C15.1147 12.1581 15.1388 12.0378 15.1388 11.9163C15.1388 11.7949 15.1147 11.6746 15.0678 11.5625C15.0209 11.4505 14.9522 11.3488 14.8657 11.2635C14.7792 11.1782 14.6766 11.111 14.5639 11.0657C14.4511 11.0204 14.3305 10.998 14.2091 10.9997H11.9174V6.87467C11.9191 6.75211 11.8962 6.63046 11.85 6.5169C11.8038 6.40335 11.7354 6.30021 11.6487 6.21358C11.562 6.12695 11.4587 6.05858 11.3451 6.01253C11.2316 5.96648 11.1099 5.94368 10.9873 5.94548Z"/>
</svg>
